<?xml version="1.0" encoding="UTF-8"?>
<svg version="1.1" xmlns="http://www.w3.org/2000/svg" width="512" height="512">
<path d="M0 0 C4.0996808 1.78719516 7.45511817 4.29433341 11 7 C12.2034209 7.89458431 13.40791055 8.78773212 14.61328125 9.6796875 C17.3198729 11.69244707 20.01257852 13.72242012 22.69921875 15.76171875 C27.04600099 19.05039614 31.45127621 22.25335948 35.875 25.4375 C36.62539551 25.97785889 37.37579102 26.51821777 38.14892578 27.07495117 C40.43194849 28.71756625 42.71595019 30.35881352 45 32 C55.00696582 39.19856631 64.97691537 46.44253046 74.89208984 53.76708984 C83.21502749 59.90919634 91.60432215 65.95790683 100 72 C110.00550398 79.20063208 119.97688478 86.44250786 129.89208984 93.76708984 C135.26074148 97.72901188 140.65116266 101.65909526 146.0625 105.5625 C146.79533203 106.09125732 147.52816406 106.62001465 148.28320312 107.16479492 C152.11008527 109.92346535 155.94183566 112.67521162 159.77734375 115.421875 C183.23545327 132.24194102 183.23545327 132.24194102 186 138 C186.82118478 143.49675939 186.72530457 148.43780554 184.375 153.5 C179.96012434 158.14723754 176.77576821 160.2610748 170.3125 160.6875 C162.99177731 160.38246989 158.68757685 157.37120686 153 153 C151.6629434 151.98543589 150.32569002 150.97113108 148.98828125 149.95703125 C146.85848112 148.33649487 144.73446919 146.71080597 142.62817383 145.05981445 C136.24248482 140.07111512 129.70913594 135.64478642 123 131 C123 184.46 123 237.92 123 293 C126.63 292.01 130.26 291.02 134 290 C155.95417711 285.23217366 178.53871798 291.15854283 197.09985352 303.0559082 C199.07802988 304.35442441 201.0422623 305.67089367 203 307 C203.60392578 307.40863281 204.20785156 307.81726563 204.83007812 308.23828125 C215.47559784 315.54146461 215.47559784 315.54146461 218 322 C218.81671847 327.23877075 218.65897045 331.65765278 216.3125 336.4375 C212.01474306 341.19987931 208.81428979 343.76150087 202.3125 344.3125 C193.95357146 344.11599716 187.74322063 338.4297991 181.28808594 333.72314453 C168.96331945 324.82853984 157.1038838 321.61850205 142 323 C133.49328587 324.45689702 126.7231188 328.13154899 119.51977539 332.63696289 C113.91338404 336.13399021 108.26744668 338.85764222 102 341 C101.07960938 341.31839844 100.15921875 341.63679688 99.2109375 341.96484375 C74.97526336 348.90302487 51.49349293 342.42482278 30 331 C27.61282073 329.66694399 25.23988104 328.31125946 22.86914062 326.94921875 C8.54952303 318.728473 -4.33740922 315.63982014 -20.6640625 319.88525391 C-26.82306629 321.94336363 -32.37238796 325.18683811 -38 328.375 C-60.58549236 341.03469801 -83.39401877 348.85055005 -109.5 342.5 C-119.33239869 339.62197497 -128.70907683 334.99115447 -137.1875 329.25 C-148.03030218 322.2813145 -160.97946188 321.51917178 -173.37890625 323.5546875 C-183.75870009 326.22923561 -192.14521428 332.60670966 -200.59765625 338.94921875 C-205.89167397 342.80535512 -210.37035919 344.46176603 -217 344 C-222.90640798 342.35395187 -225.52474458 339.80402955 -229 335 C-230.31794566 332.36410867 -230.27893485 330.25726633 -230.375 327.3125 C-230.42398438 326.29800781 -230.47296875 325.28351563 -230.5234375 324.23828125 C-229.65109935 318.84150271 -226.9463406 315.57450175 -222.81347656 312.23120117 C-220.23241818 310.38813392 -217.60754107 308.64902249 -214.9375 306.9375 C-213.99447021 306.32406738 -213.05144043 305.71063477 -212.07983398 305.07861328 C-191.2942091 291.71272148 -168.57015414 285.171917 -143.9375 290.4375 C-140.89976764 291.18519393 -137.96742697 292.01085768 -135 293 C-135 239.54 -135 186.08 -135 131 C-150.4519016 142.1552683 -150.4519016 142.1552683 -165.7734375 153.48242188 C-166.5365625 154.04896484 -167.2996875 154.61550781 -168.0859375 155.19921875 C-168.7464209 155.69252686 -169.4069043 156.18583496 -170.08740234 156.6940918 C-175.86559082 160.63939817 -181.12249643 160.7375339 -188 160 C-192.8846525 157.73212562 -195.73212562 154.8846525 -198 150 C-198.74070788 144.49759859 -199.02212555 139.89069232 -196.3359375 134.921875 C-193.83662821 131.79564866 -191.33488821 129.63540321 -188.125 127.25 C-187.55547607 126.82372314 -186.98595215 126.39744629 -186.39916992 125.95825195 C-184.60877313 124.62555058 -182.80719656 123.30981203 -181 122 C-180.44489746 121.59765137 -179.88979492 121.19530273 -179.31787109 120.78076172 C-176.48239505 118.73408339 -173.63483365 116.70493076 -170.78125 114.68359375 C-159.4623905 106.66407411 -148.26622072 98.47576138 -137.10888672 90.23364258 C-128.04893979 83.54759825 -118.90963888 76.97263981 -109.77050781 70.39550781 C-101.31406964 64.3076125 -92.88111091 58.19131259 -84.5 52 C-74.64592179 44.72057378 -64.71425666 37.55169676 -54.77050781 30.39550781 C-52.53389867 28.78534499 -50.29800289 27.17419833 -48.0625 25.5625 C-47.32974854 25.03454834 -46.59699707 24.50659668 -45.84204102 23.96264648 C-41.85171445 21.08130054 -37.87940613 18.17763171 -33.92578125 15.24609375 C-33.08200928 14.62081787 -32.2382373 13.99554199 -31.36889648 13.35131836 C-29.75827199 12.15568786 -28.14956793 10.95746401 -26.54321289 9.75610352 C-10.62751534 -2.06306811 -10.62751534 -2.06306811 0 0 Z " fill="#CAEAF6" transform="translate(262,32)"/>
<path d="M0 0 C0.86348557 -0.00571014 1.72697113 -0.01142029 2.61662292 -0.01730347 C4.02560097 -0.01898026 4.02560097 -0.01898026 5.46304321 -0.02069092 C6.45860733 -0.02565582 7.45417145 -0.03062073 8.47990417 -0.03573608 C11.77328177 -0.050341 15.06661121 -0.0571565 18.36001587 -0.06268311 C20.64921063 -0.06843536 22.93840537 -0.07419308 25.2276001 -0.07995605 C30.02760035 -0.09046089 34.82758387 -0.09630714 39.62759399 -0.09979248 C45.7768067 -0.10528004 51.92579831 -0.12931602 58.07494164 -0.15776443 C62.8035751 -0.17639017 67.53215525 -0.18159636 72.2608223 -0.18312836 C74.52782019 -0.18615489 76.79481714 -0.19418341 79.06177902 -0.20731354 C82.2334654 -0.22437441 85.40461078 -0.22249363 88.57632446 -0.21600342 C89.5115947 -0.2252182 90.44686493 -0.23443298 91.41047668 -0.243927 C97.4825307 -0.20501869 101.75820507 0.34961207 106.31848621 4.7520771 C110.96317522 10.1314784 111.50164905 14.66190813 111.37783813 21.59210205 C111.38353317 22.60775742 111.38922821 23.62341278 111.39509583 24.66984558 C111.40615647 28.00711892 111.37420521 31.34240701 111.34048462 34.67950439 C111.33690543 37.00782034 111.33555054 39.33614066 111.33631897 41.66445923 C111.33163542 46.53498606 111.30685065 51.40484793 111.26651001 56.27520752 C111.21548449 62.5140701 111.20406927 68.75220416 111.20634556 74.99125099 C111.20552942 79.79542985 111.1890702 84.5994499 111.16734123 89.4035759 C111.15780533 91.7040423 111.15188465 94.00452666 111.14966011 96.30501175 C111.14314654 99.51950938 111.11686767 102.73323869 111.08486938 105.9475708 C111.08690872 107.3691021 111.08690872 107.3691021 111.08898926 108.8193512 C111.0031449 114.72463879 110.29565771 119.23885361 106.14907837 123.78497314 C102.14825614 126.9001967 99.3881303 128.25564417 94.35594177 128.30107117 C93.04186844 128.3161396 93.04186844 128.3161396 91.70124817 128.33151245 C90.74277481 128.33734344 89.78430145 128.34317444 88.79678345 128.34918213 C87.7850708 128.35896591 86.77335815 128.36874969 85.73098755 128.37882996 C82.37687497 128.40878717 79.02280229 128.43017113 75.66860962 128.44903564 C73.95008569 128.45889338 73.95008569 128.45889338 72.1968441 128.46895027 C66.13169972 128.50154633 60.06657293 128.52599587 54.00137329 128.54547119 C48.98353494 128.56328109 43.96625887 128.5980971 38.94863892 128.64801025 C32.88914431 128.70821771 26.83017095 128.73894808 20.77039146 128.74864388 C18.46313095 128.75719911 16.15588439 128.77601868 13.84879494 128.8053875 C10.61469606 128.844338 7.38262408 128.84533123 4.14834595 128.83746338 C3.19999374 128.85746399 2.25164154 128.8774646 1.27455139 128.89807129 C-4.61985975 128.8338849 -8.24138858 127.70026219 -12.7410841 123.8111515 C-17.86472172 118.49377603 -17.78460307 113.08721848 -17.73910522 106.11529541 C-17.74436218 105.12104553 -17.74961914 104.12679565 -17.7550354 103.10241699 C-17.76821005 99.82456629 -17.75950537 96.54720356 -17.74935913 93.26934814 C-17.75138075 90.98540657 -17.75429292 88.70146562 -17.75805664 86.41752625 C-17.76247671 81.63361457 -17.75605958 76.8498711 -17.74203491 72.065979 C-17.72495312 65.94154482 -17.73478013 59.81750534 -17.7527523 53.69308567 C-17.76360686 48.97725974 -17.76013591 44.26152695 -17.75236893 39.54569817 C-17.75037105 37.28791189 -17.75281167 35.03011709 -17.75980759 32.77234077 C-17.76744829 29.61299456 -17.75578019 26.45428208 -17.73910522 23.29498291 C-17.74517792 22.36645004 -17.75125061 21.43791718 -17.75750732 20.48124695 C-17.6976606 14.34332401 -16.97887373 9.26595293 -12.88607788 4.39825439 C-8.49205961 1.01824034 -5.44881509 0.02166673 0 0 Z " fill="#81D0E5" transform="translate(209.35092163085938,143.85955810546875)"/>
<path d="M0 0 C12.88973323 7.43923314 25.0832819 11.0691411 39.91943359 7.76171875 C47.57170687 5.66761839 54.04512616 2.13789523 60.73193359 -2.05078125 C79.47693508 -13.39106986 101.83356483 -15.73403783 122.92578125 -10.58984375 C134.46367334 -7.4701198 144.19076252 -1.85213876 153.91943359 4.94921875 C154.96873047 5.66851562 156.01802734 6.3878125 157.09912109 7.12890625 C162.29775466 10.78311818 167.00395608 14.11826372 169.91943359 19.94921875 C170.51464104 25.55267168 171.04097534 31.1627173 167.79443359 36.01171875 C164.61187553 39.64639509 161.47601991 41.56093175 156.63037109 42.296875 C146.36817328 42.91641945 139.66617277 36.79733177 131.64672852 31.19116211 C120.69652539 23.57968953 108.32324142 19.21525078 94.89599609 21.453125 C85.53560083 23.36229653 78.14401127 26.92281486 70.10693359 31.94921875 C51.6136407 43.13722954 29.56276474 45.52567023 8.67724609 40.91015625 C-2.97427044 37.93066242 -13.33148117 31.75397165 -23.87158203 26.12548828 C-26.84587811 24.54169534 -29.83024901 22.98330064 -32.83056641 21.44921875 C-33.69166016 21.00578125 -34.55275391 20.56234375 -35.43994141 20.10546875 C-41.57360725 17.41972158 -47.16572367 16.58563162 -53.76806641 16.57421875 C-54.85764648 16.53748047 -54.85764648 16.53748047 -55.96923828 16.5 C-67.84980738 16.43806828 -77.94333914 22.1855165 -88.01806641 27.88671875 C-111.40421644 41.08428876 -133.69434737 46.53913045 -160.08056641 39.94921875 C-168.68105544 37.34838358 -176.17087175 33.33398066 -183.86181641 28.8125 C-196.9332851 21.24564252 -209.15803895 19.3090942 -223.85791016 22.98828125 C-232.31699802 25.51062745 -239.08265979 30.15746706 -246.08422852 35.38305664 C-252.90501928 40.44598235 -258.45206508 43.16623399 -267.08056641 41.94921875 C-272.38307492 40.16830033 -275.56039414 36.89263358 -278.08056641 31.94921875 C-279.76185108 26.00867956 -278.89975076 21.31901293 -276.08056641 15.94921875 C-260.41431698 -0.8027642 -236.6154988 -11.80438066 -213.89697266 -13.25390625 C-194.65440557 -13.5311101 -178.48985643 -8.28362972 -162.30322266 1.82470703 C-157.69739343 4.67517634 -153.35713623 6.74795711 -148.08056641 7.94921875 C-147.11119141 8.17609375 -146.14181641 8.40296875 -145.14306641 8.63671875 C-127.5677078 10.43012269 -114.28558811 3.51000937 -99.29150391 -4.65625 C-64.80264779 -23.33828694 -33.1885243 -19.19135283 0 0 Z " fill="#81D0E5" transform="translate(310.08056640625,409.05078125)"/>
<path d="M0 0 C1.47919922 -0.01836914 1.47919922 -0.01836914 2.98828125 -0.03710938 C21.99046335 -0.07466309 37.5340536 7.59794049 53.52954102 17.16113281 C62.52740787 22.43387846 72.17239753 26.82277142 82.8125 26.625 C83.85535156 26.62371094 84.89820313 26.62242187 85.97265625 26.62109375 C96.45510251 25.41783467 104.78734374 21.99738861 113.875 16.75 C134.12055468 5.22740198 154.41316938 0.34489023 177.53515625 6.2265625 C189.54469176 9.81629 199.44412904 15.19085366 209.75 22.1875 C210.35392578 22.59613281 210.95785156 23.00476563 211.58007812 23.42578125 C222.22559784 30.72896461 222.22559784 30.72896461 224.75 37.1875 C225.56671847 42.42627075 225.40897045 46.84515278 223.0625 51.625 C218.76474306 56.38737931 215.56428979 58.94900087 209.0625 59.5 C200.70357146 59.30349716 194.49322063 53.6172991 188.03808594 48.91064453 C175.71331945 40.01603984 163.8538838 36.80600205 148.75 38.1875 C140.24328587 39.64439702 133.4731188 43.31904899 126.26977539 47.82446289 C120.66338404 51.32149021 115.01744668 54.04514222 108.75 56.1875 C107.82960938 56.50589844 106.90921875 56.82429688 105.9609375 57.15234375 C81.72526336 64.09052487 58.24349293 57.61232278 36.75 46.1875 C34.36282073 44.85444399 31.98988104 43.49875946 29.61914062 42.13671875 C15.29952303 33.915973 2.41259078 30.82732014 -13.9140625 35.07275391 C-20.07306629 37.13086363 -25.62238796 40.37433811 -31.25 43.5625 C-53.83549236 56.22219801 -76.64401877 64.03805005 -102.75 57.6875 C-112.58239869 54.80947497 -121.95907683 50.17865447 -130.4375 44.4375 C-141.28030218 37.4688145 -154.22946188 36.70667178 -166.62890625 38.7421875 C-177.00870009 41.41673561 -185.39521428 47.79420966 -193.84765625 54.13671875 C-199.14167397 57.99285512 -203.62035919 59.64926603 -210.25 59.1875 C-216.15640798 57.54145187 -218.77474458 54.99152955 -222.25 50.1875 C-223.56794566 47.55160867 -223.52893485 45.44476633 -223.625 42.5 C-223.67398438 41.48550781 -223.72296875 40.47101563 -223.7734375 39.42578125 C-222.90109935 34.02900271 -220.1963406 30.76200175 -216.06347656 27.41870117 C-213.48241818 25.57563392 -210.85754107 23.83652249 -208.1875 22.125 C-207.24447021 21.51156738 -206.30144043 20.89813477 -205.32983398 20.26611328 C-184.73457554 7.02263383 -162.55264747 0.75026074 -138.0625 5.1875 C-126.90032452 7.981323 -116.74940474 13.63558638 -106.9375 19.5 C-95.43201125 26.19290717 -83.53439672 27.90006364 -70.5 25.1875 C-61.13884896 22.57905427 -52.54897227 17.72114483 -44.19921875 12.83984375 C-29.91026798 4.48987907 -16.73055179 0.01076612 0 0 Z " fill="#81D0E5" transform="translate(255.25,316.8125)"/>
<path d="M0 0 C4.0996808 1.78719516 7.45511817 4.29433341 11 7 C12.2034209 7.89458431 13.40791055 8.78773212 14.61328125 9.6796875 C17.3198729 11.69244707 20.01257852 13.72242012 22.69921875 15.76171875 C27.04600099 19.05039614 31.45127621 22.25335948 35.875 25.4375 C37.00059326 26.24803833 37.00059326 26.24803833 38.14892578 27.07495117 C40.43194849 28.71756625 42.71595019 30.35881352 45 32 C55.00696582 39.19856631 64.97691537 46.44253046 74.89208984 53.76708984 C83.21502749 59.90919634 91.60432215 65.95790683 100 72 C110.00550398 79.20063208 119.97688478 86.44250786 129.89208984 93.76708984 C135.26074148 97.72901188 140.65116266 101.65909526 146.0625 105.5625 C146.79533203 106.09125732 147.52816406 106.62001465 148.28320312 107.16479492 C152.11008527 109.92346535 155.94183566 112.67521162 159.77734375 115.421875 C183.23545327 132.24194102 183.23545327 132.24194102 186 138 C186.82118478 143.49675939 186.72530457 148.43780554 184.375 153.5 C179.96012434 158.14723754 176.77576821 160.2610748 170.3125 160.6875 C162.99113996 160.38244333 158.68873965 157.3704423 153 153 C151.67472501 151.99707089 150.34918582 150.99449084 149.0234375 149.9921875 C146.11157416 147.77994061 143.21696035 145.5468846 140.328125 143.3046875 C135.70045876 139.73518932 130.94466934 136.35982308 126.11401367 133.07104492 C124.70841939 132.094932 123.34850082 131.05358305 122 130 C122 129.34 122 128.68 122 128 C121.29746094 127.7628125 120.59492188 127.525625 119.87109375 127.28125 C116.47903443 125.76751469 113.96755352 123.81525072 111.0625 121.5 C106.55160083 117.95264381 101.99619728 114.50365497 97.3125 111.1875 C96.73854492 110.78047852 96.16458984 110.37345703 95.57324219 109.95410156 C94.36016618 109.09404059 93.14694581 108.2341832 91.93359375 107.37451172 C81.24254436 99.77468747 70.65907823 92.02725455 60.10888672 84.23364258 C51.7856412 78.09126792 43.39600805 72.04233081 35 66 C32.01996608 63.85536762 29.04084252 61.70948065 26.0625 59.5625 C25.33192383 59.03672363 24.60134766 58.51094727 23.84863281 57.96923828 C19.81438249 55.05875178 15.80549573 52.11800957 11.8203125 49.140625 C10.96300537 48.50181396 10.10569824 47.86300293 9.22241211 47.20483398 C7.57118516 45.97217868 5.92337343 44.73493095 4.27954102 43.49243164 C2.21332152 41.95116402 0.12065779 40.46499548 -2 39 C-2.825 38.41476563 -3.65 37.82953125 -4.5 37.2265625 C-9.09431915 36.81020233 -12.24429921 40.31471196 -15.6875 43.0625 C-17.39764504 44.37603238 -19.10860165 45.68850873 -20.8203125 47 C-21.6855957 47.67160156 -22.55087891 48.34320313 -23.44238281 49.03515625 C-27.25455443 51.96378905 -31.1536843 54.76494664 -35.0625 57.5625 C-36.55492825 58.63768674 -38.04711553 59.71320803 -39.5390625 60.7890625 C-41.76903289 62.394446 -43.99926236 63.99946914 -46.22949219 65.60449219 C-54.68593036 71.6923875 -63.11888909 77.80868741 -71.5 84 C-81.3695684 91.29086917 -91.31310448 98.47664013 -101.27783203 105.63671875 C-119.97529309 119.0180329 -119.97529309 119.0180329 -138.125 133.125 C-143.56939908 137.52762555 -149.26855648 141.55491252 -154.99072266 145.58349609 C-157.19924413 147.14046348 -159.40254951 148.70464845 -161.60546875 150.26953125 C-163.15351922 151.36736606 -164.7016944 152.46502504 -166.25 153.5625 C-166.98935791 154.0874707 -167.72871582 154.61244141 -168.49047852 155.15332031 C-169.17940186 155.64026367 -169.8683252 156.12720703 -170.578125 156.62890625 C-171.19075195 157.06275635 -171.80337891 157.49660645 -172.43457031 157.94360352 C-177.12394164 161.10812468 -182.53533113 160.50784226 -188 160 C-192.8846525 157.73212562 -195.73212562 154.8846525 -198 150 C-198.74070788 144.49759859 -199.02212555 139.89069232 -196.3359375 134.921875 C-193.83662821 131.79564866 -191.33488821 129.63540321 -188.125 127.25 C-187.55547607 126.82372314 -186.98595215 126.39744629 -186.39916992 125.95825195 C-184.60877313 124.62555058 -182.80719656 123.30981203 -181 122 C-180.44489746 121.59765137 -179.88979492 121.19530273 -179.31787109 120.78076172 C-176.48239505 118.73408339 -173.63483365 116.70493076 -170.78125 114.68359375 C-159.4623905 106.66407411 -148.26622072 98.47576138 -137.10888672 90.23364258 C-128.04893979 83.54759825 -118.90963888 76.97263981 -109.77050781 70.39550781 C-101.31406964 64.3076125 -92.88111091 58.19131259 -84.5 52 C-74.64592179 44.72057378 -64.71425666 37.55169676 -54.77050781 30.39550781 C-52.53389867 28.78534499 -50.29800289 27.17419833 -48.0625 25.5625 C-47.32974854 25.03454834 -46.59699707 24.50659668 -45.84204102 23.96264648 C-41.85171445 21.08130054 -37.87940613 18.17763171 -33.92578125 15.24609375 C-33.08200928 14.62081787 -32.2382373 13.99554199 -31.36889648 13.35131836 C-29.75827199 12.15568786 -28.14956793 10.95746401 -26.54321289 9.75610352 C-10.62751534 -2.06306811 -10.62751534 -2.06306811 0 0 Z " fill="#81D0E5" transform="translate(262,32)"/>
<path d="M0 0 C5.28 0 10.56 0 16 0 C16 5.28 16 10.56 16 16 C10.72 16 5.44 16 0 16 C0 10.72 0 5.44 0 0 Z " fill="#CBEBF7" transform="translate(272,224)"/>
<path d="M0 0 C5.28 0 10.56 0 16 0 C16 5.28 16 10.56 16 16 C10.72 16 5.44 16 0 16 C0 10.72 0 5.44 0 0 Z " fill="#CBEBF7" transform="translate(224,224)"/>
<path d="M0 0 C5.28 0 10.56 0 16 0 C16 5.28 16 10.56 16 16 C10.72 16 5.44 16 0 16 C0 10.72 0 5.44 0 0 Z " fill="#CBEBF7" transform="translate(272,176)"/>
<path d="M0 0 C5.28 0 10.56 0 16 0 C16 5.28 16 10.56 16 16 C10.72 16 5.44 16 0 16 C0 10.72 0 5.44 0 0 Z " fill="#CBEBF7" transform="translate(224,176)"/>
</svg>
