<svg version="1.2" xmlns="http://www.w3.org/2000/svg" viewBox="0 0 460 458" width="460" height="458">
<title>infoctopus-svg</title>
<style>
.s0 { fill: #0E12F6 } 
</style>
<g>
<path fill-rule="evenodd" class="s0" d="m335-0.6c118.7 0.1 111-0.3 117.8 6 7.1 6.5 6.7 1.4 7 90.1 0.3 82.8 0.1 89-3.9 104-6.1 23.6-24.6 44.9-48.4 56-14.1 6.7-20.3 7.7-49 8.4-24.6 0.7-25.1 0.7-30.7 3.4-8.1 3.9-14.9 11.7-17.6 20.1-2.7 8.2-2.7 11.5-0.1 21.9 2.9 11.7 11.9 37.8 13.8 40.2 0.5 0.5 1.2 2.1 1.6 3.5 1.6 5.1 15.4 31.9 18.1 35.1 0.8 0.8 1.4 1.8 1.4 2.2 0 0.5 6.8 10.7 13.7 20.7 3.3 4.8 13.8 17.5 18.7 22.8 4.2 4.4 5 5.9 5.4 10 0.8 9.2-4.1 14.2-14 14.2-11.3 0-39.3-6.2-56.3-12.5-14.8-5.5-34.7-15.5-48.1-24.4-34.7-22.7-60.7-51.3-80.9-89.1l-6.6-12.5 0.6 7.5c0.9 11.2 6 35.1 9.9 47.1 3.9 11.7 11.8 30.3 16.6 38.9 7.5 13.7 8 15.6 5.6 21.4-1.8 4.2-7.2 7.6-12.2 7.6-4.8 0-17.4-7.3-34.4-19.8-14.5-10.7-37.1-33.2-47.7-47.6-8.9-11.9-20.8-31.4-23.9-38.8-1.8-4.5-4.2-6.9-3-3.1 0.3 1 1 4.9 1.6 8.8 1.7 10.7 5.6 25.8 10.2 38.5 2.2 6.3 4.3 13.8 4.5 16.6 0.4 4.3 0.1 5.5-2.1 8.1-1.4 1.7-4 3.6-5.7 4.3-2.7 1.2-3.3 1.1-4.3-0.1-0.6-0.9-4.7-3.9-9.1-6.9-20.9-14-29.3-22.5-44.8-45.4-6.7-10.1-18.9-33.4-23-44.1-11.8-31.1-17.1-66.2-14.7-97.8 2.2-29.8 8.8-56.3 19.7-79.7 1.4-3 3.6-7.8 4.9-10.5 1.3-2.8 5-9.2 8.2-14.3 40.5-65 106.9-105.3 181.2-110.2 6.3-0.4 60.3-0.7 120-0.6zm-154.5 149.6c-23.4 3.8-42 22-46.1 45.3-4.7 26.1 9.9 51.6 35.2 61.4 6 2.3 8.5 2.6 18.4 2.7 9.6 0.1 12.6-0.3 18.2-2.2 16.6-5.8 30.2-19.6 35.4-36.2 2.1-6.5 2.8-19.5 1.5-26.5-0.6-3.3-2.9-9.8-5.2-14.4-6.7-13.7-18.7-23.8-33.4-28.4-6.3-2-17.5-2.8-24-1.7z"/>
<path class="s0" d="m185 169.5c-0.8 0.2-3.1 0.6-5.1 1-6.2 1-15.4 7.7-19.8 14.5-11.5 17.7-5.3 39.5 14.1 49.7 4.7 2.5 6.3 2.8 14.8 2.8 8-0.1 10.2-0.4 14-2.4 5.2-2.7 12-7.9 12-9.1 0-0.4-2.3-1.1-5.1-1.5-6.1-0.8-12.4-5.3-15.6-11-4.5-7.9-1.9-20.7 5.1-25.9 4.1-3.1 6.1-3.8 12.1-4.5l4.9-0.6-3.4-3.2c-5.5-5.2-13.7-9-20.5-9.6-3.3-0.3-6.7-0.3-7.5-0.2z"/>
</g>
</svg>
